<svg width="42" height="37" viewBox="0 0 42 37" fill="none" xmlns="http://www.w3.org/2000/svg">
<g clip-path="url(#clip0_437_210)">
<path d="M40.2383 19.5405L34.4434 14.5223L34.6918 6.60692L27.8418 6.39195L27.768 8.74211L21.0926 2.9613L0.945721 18.3074C0.661906 18.5241 0.633559 18.903 0.883503 19.1538C1.13278 19.404 1.56596 19.4314 1.85112 19.2154L4.18263 17.4395L3.55532 37.4282L14.5154 37.7721L25.4755 38.1161L36.4356 38.46L37.0629 18.4707L39.2784 20.3894C39.4066 20.5008 39.5728 20.5588 39.7399 20.564C39.9242 20.5698 40.1091 20.5114 40.2473 20.3886C40.5125 20.1545 40.508 19.7746 40.2383 19.5405ZM29.1741 7.6337L33.2842 7.76268L33.1083 13.3663L29.1031 9.89815L29.1741 7.6337ZM15.9223 36.6163L16.3185 23.9916C16.3283 23.6817 16.6239 23.439 16.978 23.4501L23.9144 23.6678C24.2685 23.6789 24.5483 23.9397 24.5386 24.2496L24.1424 36.8743L15.9223 36.6163ZM35.1025 37.2183L25.5124 36.9173L25.9086 24.2926C25.9391 23.3216 25.0617 22.5039 23.952 22.4691L17.0156 22.2514C15.9059 22.2165 14.979 22.9776 14.9485 23.9486L14.5523 36.5733L4.96227 36.2724L5.5869 16.3688L21.0413 4.59701L30.5737 12.8518L34.3921 16.158L35.7271 17.3141L35.1025 37.2183Z" fill="black"/>
</g>
<defs>
<clipPath id="clip0_437_210">
<rect width="40" height="35" fill="white" transform="translate(1.09766) rotate(1.79752)"/>
</clipPath>
</defs>
</svg>
