<svg width="40" height="34" viewBox="0 0 40 34" fill="none" xmlns="http://www.w3.org/2000/svg">
<path d="M39.7553 16.3534L33.812 11.5119L33.8221 3.59257L26.9687 3.58387L26.9657 5.93519L20.1193 0.35791L0.443437 16.3035C0.166273 16.5286 0.149342 16.9082 0.406722 17.1514C0.663418 17.394 1.09722 17.4083 1.37576 17.1838L3.65275 15.3385L3.62735 35.337L36.5238 35.3788L36.5492 15.3796L38.8215 17.2307C38.9529 17.3382 39.1207 17.3912 39.288 17.3914C39.4723 17.3917 39.6554 17.3277 39.7899 17.2008C40.0479 16.9588 40.0319 16.5792 39.7553 16.3534ZM28.3378 4.78495L32.4499 4.79018L32.4427 10.3965L28.3349 7.05052L28.3378 4.78495ZM15.9643 34.1533L15.9804 21.5224C15.9808 21.2123 16.2689 20.9608 16.6233 20.9613L23.563 20.9701C23.9174 20.9706 24.2049 21.2228 24.2045 21.5328L24.1884 34.1638L15.9643 34.1533ZM35.1539 34.1777L25.5591 34.1655L25.5752 21.5346C25.5764 20.5631 24.6748 19.7722 23.5646 19.7708L16.6248 19.762C15.5145 19.7605 14.6109 20.5492 14.6097 21.5206L14.5937 34.1516L4.99887 34.1394L5.02417 14.226L20.1172 1.99442L35.1792 14.2637L35.1539 34.1777Z" fill="white"/>
</svg>
